<svg width="175" height="83" viewBox="0 0 175 83" fill="none" xmlns="http://www.w3.org/2000/svg">
<path d="M12.6562 47H18.4453L30.4922 13.1797H24.8438L15.6094 41.1641H15.4922L6.25781 13.1797H0.609375L12.6562 47ZM67.5591 55.2266C72.3872 55.2266 74.9653 53.2578 76.7934 48.1484L85.9809 22.3438H80.6372L74.4263 42.4062H74.2622L68.0513 22.3438H62.5669L71.5434 47.0234L71.1216 48.1953C70.2778 50.5859 68.9653 51.2188 66.5747 51.2188C65.895 51.2188 65.3091 51.125 64.9106 51.0312V54.9922C65.52 55.1094 66.5747 55.2266 67.5591 55.2266ZM99.5006 47.4453C102.758 47.4453 105.618 45.7578 107.048 43.1094H107.141V47H112.227V30.0078C112.227 25.0625 108.407 21.875 102.383 21.875C96.3131 21.875 92.6334 25.1328 92.2819 29.375L92.2584 29.6328H97.0397L97.0866 29.4219C97.5084 27.4531 99.3131 26.0703 102.243 26.0703C105.383 26.0703 107.141 27.7109 107.141 30.4297V32.2812L100.438 32.6797C94.6022 33.0312 91.2741 35.6562 91.2741 39.9453V39.9922C91.2741 44.4219 94.5788 47.4453 99.5006 47.4453ZM96.3834 39.875V39.8281C96.3834 37.7422 98.0709 36.4062 101.118 36.2188L107.141 35.8438V37.7656C107.141 40.9766 104.446 43.3906 100.883 43.3906C98.1647 43.3906 96.3834 42.0312 96.3834 39.875ZM131.794 55.6953C138.755 55.6953 143.114 51.9453 143.114 46.3203V22.3438H138.028V26.5391H137.911C136.458 23.75 133.739 21.875 130.27 21.875C124.012 21.875 119.887 26.7266 119.887 34.4609V34.4844C119.887 42.1719 123.966 47.0234 130.153 47.0234C133.692 47.0234 136.505 45.3125 137.911 42.6406H138.028V46.0156C138.028 49.4609 135.802 51.6172 131.77 51.6172C128.606 51.6172 126.473 50.5391 125.794 48.9688L125.7 48.7812H120.684L120.708 48.9922C121.458 52.7656 125.466 55.6953 131.794 55.6953ZM131.583 42.8984C127.575 42.8984 125.067 39.7109 125.067 34.5547V34.5312C125.067 29.4453 127.575 26.2109 131.583 26.2109C135.427 26.2109 138.028 29.4688 138.028 34.5312V34.5547C138.028 39.6406 135.45 42.8984 131.583 42.8984ZM162.493 47.4922C168.47 47.4922 172.267 43.9297 173.063 40.0156L173.11 39.7578H168.306L168.235 39.9453C167.602 41.7969 165.61 43.3438 162.61 43.3438C158.579 43.3438 156.024 40.625 155.931 35.9609H173.392V34.25C173.392 26.8438 169.149 21.875 162.235 21.875C155.321 21.875 150.868 27.0312 150.868 34.7422V34.7656C150.868 42.5469 155.251 47.4922 162.493 47.4922ZM162.259 26.0234C165.563 26.0234 167.954 28.1094 168.376 32.375H156.001C156.446 28.25 158.977 26.0234 162.259 26.0234Z" fill="white"/>
<mask id="path-2-inside-1_202_42" fill="white">
<path d="M61.1129 19.6836L61.1316 19.6655C62.2273 18.5689 62.2626 16.821 61.2103 15.7684C60.964 15.5227 60.6713 15.3283 60.3493 15.1964C60.0273 15.0645 59.6823 14.9978 59.3343 15.0001C58.9581 15.0007 58.5858 15.0758 58.2389 15.2212C57.8919 15.3666 57.5773 15.5794 57.313 15.8471L54.9079 18.4172L46.3055 15.8419L44.5225 17.6255C44.4121 17.7358 44.3244 17.8667 44.2647 18.0109C44.2049 18.1551 44.1741 18.3096 44.1741 18.4657C44.1741 18.6218 44.2049 18.7763 44.2647 18.9205C44.3244 19.0647 44.4121 19.1957 44.5225 19.3059L44.6006 19.3841L50.8142 22.8036L49.9051 23.7902C47.8922 22.4887 45.5464 21.7958 43.1494 21.7947C42.6874 21.7954 42.2258 21.8215 41.7666 21.8729L41.7235 21.8251C41.7032 21.8433 41.6804 21.8638 41.658 21.8846C36.4939 22.4971 32.2434 26.258 31.0604 31.451C30.6981 33.04 30.6525 34.6847 30.926 36.2913C31.1995 37.898 31.7869 39.4349 32.6545 40.8145C33.5222 42.1941 34.6531 43.3892 35.9827 44.3316C37.3123 45.274 38.8146 45.9453 40.4037 46.307C41.3113 46.5142 42.2394 46.619 43.1704 46.6195C48.9936 46.6195 53.965 42.6495 55.2597 36.9651C55.4885 35.9648 55.5931 34.9401 55.5711 33.9142C55.6431 33.632 55.6251 33.3343 55.5196 33.0629C55.3415 31.1215 54.7061 29.2499 53.6654 27.6013C53.5371 27.3974 53.402 27.1989 53.2631 27.0049L54.186 26.1541L57.6334 32.4176L57.7124 32.4963C57.9351 32.7186 58.2369 32.8434 58.5516 32.8434C58.8662 32.8433 59.168 32.7184 59.3907 32.496L61.1747 30.7123L58.5823 22.0512L61.1129 19.6836ZM37.161 42.7801L36.9568 43.1158C35.2939 41.9553 33.989 40.3525 33.19 38.4888C32.3909 36.6251 32.1296 34.5749 32.4356 32.5703C33.1305 32.7576 33.8321 33.0343 34.1015 33.2268C34.0914 33.2985 34.0802 33.3712 34.069 33.4436C33.9648 34.1198 33.8074 35.1413 34.64 35.7473C35.3686 36.2772 36.0354 35.7816 36.3396 35.5254C36.4617 35.6239 36.5947 35.7218 36.7316 35.8229C36.9451 35.9803 37.3218 36.2582 37.4571 36.4273C37.4143 36.5767 37.3511 36.7533 37.2896 36.9253C37.0477 37.6007 36.7976 38.2987 37.2631 38.7891C37.4236 38.9865 37.9034 39.8939 38.026 40.2207C38.0234 40.3295 38.0315 40.4534 38.0419 40.6147C38.063 40.8453 38.0665 41.0772 38.0523 41.3083C38.0515 41.3081 37.1064 42.4983 37.161 42.7801ZM43.1704 45.0607C41.3623 45.0592 39.5829 44.609 37.9917 43.7504C38.7523 43.1072 39.4105 42.0741 39.4204 42.0574C39.6511 41.6678 39.6379 41.1503 39.5968 40.5142C39.5901 40.4077 39.5823 40.3162 39.5838 40.2575C39.5827 40.2867 39.5784 40.3157 39.5711 40.344C39.6961 39.791 38.9443 38.5179 38.5827 37.9755C38.6201 37.8321 38.6996 37.6102 38.7565 37.4507C38.8553 37.1913 38.9389 36.9262 39.0066 36.6569C39.2214 35.7225 38.3536 35.0825 37.6564 34.5684C37.4824 34.448 37.3167 34.316 37.1605 34.1733C36.8467 33.8424 36.3181 33.587 35.5468 34.1611C35.5606 33.9962 35.5894 33.8093 35.6091 33.6805C35.6351 33.5127 35.6603 33.3452 35.6765 33.1838C35.766 32.2796 34.7898 31.5619 32.7801 31.0483C33.3074 29.2832 34.2784 27.6827 35.6005 26.3997C36.9225 25.1167 38.5513 24.1941 40.3314 23.7198C40.1536 24.156 40.038 24.615 39.988 25.0833C39.9545 25.386 39.9111 25.66 39.8729 25.9013C39.7205 26.8648 39.5475 27.9568 40.9312 28.573C41.4691 28.8176 42.0458 28.9655 42.6351 29.0099C42.8049 29.024 42.9737 29.0484 43.1405 29.0829C43.1875 29.3173 43.1577 29.7986 43.1454 29.9963C43.1283 30.2724 43.1099 30.5701 43.1982 30.8197C43.3122 31.4499 43.8629 33.7527 46.0044 35.238C45.6861 35.4346 45.3384 35.5789 44.9745 35.6656C44.7942 35.7002 44.6095 35.7233 44.4308 35.7456C43.6996 35.8374 42.6981 35.9623 42.2792 37.1172C42.0929 37.6277 42.2137 37.9994 42.348 38.2212C42.6815 38.7727 43.3304 38.8597 43.8042 38.9231C43.8806 38.9332 43.9879 38.9478 44.0524 38.9605C44.3456 39.1753 45.261 39.7837 46.21 39.7837C46.6711 39.7908 47.1181 39.6248 47.4628 39.3184C47.6189 39.186 48.3593 39.1946 48.7157 39.1992C49.47 39.2081 50.1823 39.2169 50.6369 38.7573C50.7475 38.6452 50.8338 38.5114 50.8905 38.3645C50.9472 38.2175 50.973 38.0604 50.9663 37.903C50.9502 37.252 52.1962 36.5519 53.1977 35.9893C53.4393 35.8537 53.6863 35.7142 53.9263 35.5695C53.8814 35.9197 53.8193 36.2692 53.7401 36.6182C53.2047 39.0196 51.8648 41.1659 49.9425 42.7014C48.0201 44.2369 45.6307 45.0693 43.1704 45.0607ZM52.3461 28.4305C53.3266 29.983 53.8946 31.7602 53.9964 33.5936C53.7704 33.8798 52.9472 34.3427 52.4342 34.6308C51.0935 35.3841 49.5859 36.2312 49.4222 37.6315C49.2258 37.6474 48.9429 37.6435 48.7349 37.6412C47.9366 37.6324 47.0341 37.6206 46.4341 38.1482C46.1746 38.376 45.3849 38.0253 44.934 37.6739C44.6815 37.4767 44.3796 37.4287 44.0593 37.3853C44.2458 37.3437 44.4345 37.3129 44.6246 37.2931C44.8183 37.2687 45.0381 37.2413 45.2683 37.1972C45.967 37.0631 47.788 36.2987 47.9397 35.2884C47.971 35.0845 47.9364 34.8759 47.841 34.693C47.7455 34.5101 47.5942 34.3624 47.409 34.2715C45.0893 33.0459 44.7334 30.5685 44.7196 30.4669L44.6924 30.2479C44.6952 30.1965 44.6986 30.1409 44.7014 30.0931C44.7477 29.3497 44.8334 27.9656 43.7414 27.6313C43.4337 27.5426 43.1179 27.4853 42.7987 27.4601C42.3725 27.4332 41.9548 27.3282 41.5666 27.1503C41.378 27.0663 41.3388 27.011 41.3388 27.011C41.2912 26.9136 41.3617 26.4699 41.4131 26.146C41.4542 25.8873 41.5004 25.5943 41.538 25.255C41.6391 24.3432 42.0064 23.7707 42.3568 23.3837C42.6191 23.365 42.8831 23.3532 43.1499 23.3532C45.1552 23.3545 47.1214 23.9087 48.8322 24.9549L48.7543 25.0394C48.6191 25.1757 48.4943 25.3219 48.381 25.4768L45.5943 24.7554L44.3724 25.9777C44.2713 26.0786 44.1912 26.1985 44.1365 26.3304C44.0818 26.4623 44.0536 26.6036 44.0536 26.7464C44.0536 26.8892 44.0817 27.0306 44.1363 27.1625C44.191 27.2944 44.2711 27.4143 44.3721 27.5152L44.4596 27.603L47.6695 29.2321L47.7849 29.3474L49.4139 32.5578L49.5017 32.6454C49.6026 32.7464 49.7224 32.8265 49.8543 32.8812C49.9861 32.9359 50.1275 32.964 50.2702 32.9641C50.413 32.9641 50.5544 32.9361 50.6863 32.8815C50.8182 32.8269 50.938 32.7468 51.039 32.6459L52.2616 31.4237L51.5255 28.5798C51.6715 28.4717 51.8095 28.3533 51.9385 28.2254L52.1053 28.0719C52.1869 28.1899 52.2689 28.3079 52.3461 28.4305ZM59.4146 30.2672L58.6498 31.032L54.5923 23.6591L50.8717 27.0893L50.8496 27.1103C50.6841 27.2769 50.4925 27.4153 50.2823 27.52L49.7139 27.8005L50.5298 30.9512L50.4083 31.0728L49.0624 28.4208L48.5964 27.9543L45.9447 26.609L46.066 26.4876L49.1713 27.2916L49.4487 26.7139C49.5545 26.4971 49.6961 26.2995 49.8675 26.1297L53.3083 22.3974L45.9852 18.3671L46.75 17.6021L55.3864 20.1873L58.4231 16.9415C58.6644 16.6986 58.9919 16.561 59.3343 16.5587C59.4775 16.5569 59.6196 16.5836 59.7524 16.6371C59.8852 16.6906 60.0061 16.7699 60.1081 16.8704C60.5505 17.3127 60.518 18.0663 60.0375 18.5552L56.8122 21.5721L59.4146 30.2672Z"/>
</mask>
<path d="M61.1129 19.6836L61.1316 19.6655C62.2273 18.5689 62.2626 16.821 61.2103 15.7684C60.964 15.5227 60.6713 15.3283 60.3493 15.1964C60.0273 15.0645 59.6823 14.9978 59.3343 15.0001C58.9581 15.0007 58.5858 15.0758 58.2389 15.2212C57.8919 15.3666 57.5773 15.5794 57.313 15.8471L54.9079 18.4172L46.3055 15.8419L44.5225 17.6255C44.4121 17.7358 44.3244 17.8667 44.2647 18.0109C44.2049 18.1551 44.1741 18.3096 44.1741 18.4657C44.1741 18.6218 44.2049 18.7763 44.2647 18.9205C44.3244 19.0647 44.4121 19.1957 44.5225 19.3059L44.6006 19.3841L50.8142 22.8036L49.9051 23.7902C47.8922 22.4887 45.5464 21.7958 43.1494 21.7947C42.6874 21.7954 42.2258 21.8215 41.7666 21.8729L41.7235 21.8251C41.7032 21.8433 41.6804 21.8638 41.658 21.8846C36.4939 22.4971 32.2434 26.258 31.0604 31.451C30.6981 33.04 30.6525 34.6847 30.926 36.2913C31.1995 37.898 31.7869 39.4349 32.6545 40.8145C33.5222 42.1941 34.6531 43.3892 35.9827 44.3316C37.3123 45.274 38.8146 45.9453 40.4037 46.307C41.3113 46.5142 42.2394 46.619 43.1704 46.6195C48.9936 46.6195 53.965 42.6495 55.2597 36.9651C55.4885 35.9648 55.5931 34.9401 55.5711 33.9142C55.6431 33.632 55.6251 33.3343 55.5196 33.0629C55.3415 31.1215 54.7061 29.2499 53.6654 27.6013C53.5371 27.3974 53.402 27.1989 53.2631 27.0049L54.186 26.1541L57.6334 32.4176L57.7124 32.4963C57.9351 32.7186 58.2369 32.8434 58.5516 32.8434C58.8662 32.8433 59.168 32.7184 59.3907 32.496L61.1747 30.7123L58.5823 22.0512L61.1129 19.6836ZM37.161 42.7801L36.9568 43.1158C35.2939 41.9553 33.989 40.3525 33.19 38.4888C32.3909 36.6251 32.1296 34.5749 32.4356 32.5703C33.1305 32.7576 33.8321 33.0343 34.1015 33.2268C34.0914 33.2985 34.0802 33.3712 34.069 33.4436C33.9648 34.1198 33.8074 35.1413 34.64 35.7473C35.3686 36.2772 36.0354 35.7816 36.3396 35.5254C36.4617 35.6239 36.5947 35.7218 36.7316 35.8229C36.9451 35.9803 37.3218 36.2582 37.4571 36.4273C37.4143 36.5767 37.3511 36.7533 37.2896 36.9253C37.0477 37.6007 36.7976 38.2987 37.2631 38.7891C37.4236 38.9865 37.9034 39.8939 38.026 40.2207C38.0234 40.3295 38.0315 40.4534 38.0419 40.6147C38.063 40.8453 38.0665 41.0772 38.0523 41.3083C38.0515 41.3081 37.1064 42.4983 37.161 42.7801ZM43.1704 45.0607C41.3623 45.0592 39.5829 44.609 37.9917 43.7504C38.7523 43.1072 39.4105 42.0741 39.4204 42.0574C39.6511 41.6678 39.6379 41.1503 39.5968 40.5142C39.5901 40.4077 39.5823 40.3162 39.5838 40.2575C39.5827 40.2867 39.5784 40.3157 39.5711 40.344C39.6961 39.791 38.9443 38.5179 38.5827 37.9755C38.6201 37.8321 38.6996 37.6102 38.7565 37.4507C38.8553 37.1913 38.9389 36.9262 39.0066 36.6569C39.2214 35.7225 38.3536 35.0825 37.6564 34.5684C37.4824 34.448 37.3167 34.316 37.1605 34.1733C36.8467 33.8424 36.3181 33.587 35.5468 34.1611C35.5606 33.9962 35.5894 33.8093 35.6091 33.6805C35.6351 33.5127 35.6603 33.3452 35.6765 33.1838C35.766 32.2796 34.7898 31.5619 32.7801 31.0483C33.3074 29.2832 34.2784 27.6827 35.6005 26.3997C36.9225 25.1167 38.5513 24.1941 40.3314 23.7198C40.1536 24.156 40.038 24.615 39.988 25.0833C39.9545 25.386 39.9111 25.66 39.8729 25.9013C39.7205 26.8648 39.5475 27.9568 40.9312 28.573C41.4691 28.8176 42.0458 28.9655 42.6351 29.0099C42.8049 29.024 42.9737 29.0484 43.1405 29.0829C43.1875 29.3173 43.1577 29.7986 43.1454 29.9963C43.1283 30.2724 43.1099 30.5701 43.1982 30.8197C43.3122 31.4499 43.8629 33.7527 46.0044 35.238C45.6861 35.4346 45.3384 35.5789 44.9745 35.6656C44.7942 35.7002 44.6095 35.7233 44.4308 35.7456C43.6996 35.8374 42.6981 35.9623 42.2792 37.1172C42.0929 37.6277 42.2137 37.9994 42.348 38.2212C42.6815 38.7727 43.3304 38.8597 43.8042 38.9231C43.8806 38.9332 43.9879 38.9478 44.0524 38.9605C44.3456 39.1753 45.261 39.7837 46.21 39.7837C46.6711 39.7908 47.1181 39.6248 47.4628 39.3184C47.6189 39.186 48.3593 39.1946 48.7157 39.1992C49.47 39.2081 50.1823 39.2169 50.6369 38.7573C50.7475 38.6452 50.8338 38.5114 50.8905 38.3645C50.9472 38.2175 50.973 38.0604 50.9663 37.903C50.9502 37.252 52.1962 36.5519 53.1977 35.9893C53.4393 35.8537 53.6863 35.7142 53.9263 35.5695C53.8814 35.9197 53.8193 36.2692 53.7401 36.6182C53.2047 39.0196 51.8648 41.1659 49.9425 42.7014C48.0201 44.2369 45.6307 45.0693 43.1704 45.0607ZM52.3461 28.4305C53.3266 29.983 53.8946 31.7602 53.9964 33.5936C53.7704 33.8798 52.9472 34.3427 52.4342 34.6308C51.0935 35.3841 49.5859 36.2312 49.4222 37.6315C49.2258 37.6474 48.9429 37.6435 48.7349 37.6412C47.9366 37.6324 47.0341 37.6206 46.4341 38.1482C46.1746 38.376 45.3849 38.0253 44.934 37.6739C44.6815 37.4767 44.3796 37.4287 44.0593 37.3853C44.2458 37.3437 44.4345 37.3129 44.6246 37.2931C44.8183 37.2687 45.0381 37.2413 45.2683 37.1972C45.967 37.0631 47.788 36.2987 47.9397 35.2884C47.971 35.0845 47.9364 34.8759 47.841 34.693C47.7455 34.5101 47.5942 34.3624 47.409 34.2715C45.0893 33.0459 44.7334 30.5685 44.7196 30.4669L44.6924 30.2479C44.6952 30.1965 44.6986 30.1409 44.7014 30.0931C44.7477 29.3497 44.8334 27.9656 43.7414 27.6313C43.4337 27.5426 43.1179 27.4853 42.7987 27.4601C42.3725 27.4332 41.9548 27.3282 41.5666 27.1503C41.378 27.0663 41.3388 27.011 41.3388 27.011C41.2912 26.9136 41.3617 26.4699 41.4131 26.146C41.4542 25.8873 41.5004 25.5943 41.538 25.255C41.6391 24.3432 42.0064 23.7707 42.3568 23.3837C42.6191 23.365 42.8831 23.3532 43.1499 23.3532C45.1552 23.3545 47.1214 23.9087 48.8322 24.9549L48.7543 25.0394C48.6191 25.1757 48.4943 25.3219 48.381 25.4768L45.5943 24.7554L44.3724 25.9777C44.2713 26.0786 44.1912 26.1985 44.1365 26.3304C44.0818 26.4623 44.0536 26.6036 44.0536 26.7464C44.0536 26.8892 44.0817 27.0306 44.1363 27.1625C44.191 27.2944 44.2711 27.4143 44.3721 27.5152L44.4596 27.603L47.6695 29.2321L47.7849 29.3474L49.4139 32.5578L49.5017 32.6454C49.6026 32.7464 49.7224 32.8265 49.8543 32.8812C49.9861 32.9359 50.1275 32.964 50.2702 32.9641C50.413 32.9641 50.5544 32.9361 50.6863 32.8815C50.8182 32.8269 50.938 32.7468 51.039 32.6459L52.2616 31.4237L51.5255 28.5798C51.6715 28.4717 51.8095 28.3533 51.9385 28.2254L52.1053 28.0719C52.1869 28.1899 52.2689 28.3079 52.3461 28.4305ZM59.4146 30.2672L58.6498 31.032L54.5923 23.6591L50.8717 27.0893L50.8496 27.1103C50.6841 27.2769 50.4925 27.4153 50.2823 27.52L49.7139 27.8005L50.5298 30.9512L50.4083 31.0728L49.0624 28.4208L48.5964 27.9543L45.9447 26.609L46.066 26.4876L49.1713 27.2916L49.4487 26.7139C49.5545 26.4971 49.6961 26.2995 49.8675 26.1297L53.3083 22.3974L45.9852 18.3671L46.75 17.6021L55.3864 20.1873L58.4231 16.9415C58.6644 16.6986 58.9919 16.561 59.3343 16.5587C59.4775 16.5569 59.6196 16.5836 59.7524 16.6371C59.8852 16.6906 60.0061 16.7699 60.1081 16.8704C60.5505 17.3127 60.518 18.0663 60.0375 18.5552L56.8122 21.5721L59.4146 30.2672Z" fill="white" stroke="white" stroke-width="8" mask="url(#path-2-inside-1_202_42)"/>
<path d="M5.89062 79.1875C8.94531 79.1875 10.75 77.3672 10.75 74.3125V73.1562H6.0625V74.5859H9.02344V74.7734C9 76.4844 7.73438 77.6406 5.90625 77.6406C3.75781 77.6406 2.41406 76 2.41406 73.3047V73.2969C2.41406 70.6562 3.71875 69.0859 5.875 69.0859C7.34375 69.0859 8.36719 69.8438 8.84375 71.1484L8.86719 71.2344H10.6641L10.6328 71.0938C10.1641 69.0625 8.50781 67.5391 5.86719 67.5391C2.66406 67.5391 0.632812 69.75 0.632812 73.3047V73.3125C0.632812 76.9375 2.66406 79.1875 5.89062 79.1875ZM17.0456 79.1641C19.0378 79.1641 20.3034 77.9766 20.5691 76.6719L20.5847 76.5859H18.9831L18.9597 76.6484C18.7487 77.2656 18.0847 77.7812 17.0847 77.7812C15.7409 77.7812 14.8894 76.875 14.8581 75.3203H20.6784V74.75C20.6784 72.2812 19.2644 70.625 16.9597 70.625C14.655 70.625 13.1706 72.3438 13.1706 74.9141V74.9219C13.1706 77.5156 14.6316 79.1641 17.0456 79.1641ZM16.9675 72.0078C18.0691 72.0078 18.8659 72.7031 19.0066 74.125H14.8816C15.03 72.75 15.8737 72.0078 16.9675 72.0078ZM26.1537 79.1641C26.4975 79.1641 26.8178 79.125 27.0131 79.0938V77.7891C26.8881 77.8047 26.7397 77.8203 26.56 77.8203C25.8491 77.8203 25.4741 77.5703 25.4741 76.7344V72.125H27.0131V70.7812H25.4741V68.6406H23.7475V70.7812H22.5678V72.125H23.7475V76.8359C23.7475 78.4766 24.5287 79.1641 26.1537 79.1641ZM37.7528 79.1641C40.1044 79.1641 41.6512 77.5391 41.6512 74.8906V74.875C41.6512 72.2422 40.0887 70.625 37.745 70.625C35.4091 70.625 33.8544 72.25 33.8544 74.875V74.8906C33.8544 77.5312 35.3934 79.1641 37.7528 79.1641ZM37.7606 77.75C36.4403 77.75 35.5809 76.7109 35.5809 74.8906V74.875C35.5809 73.0781 36.4481 72.0391 37.745 72.0391C39.0653 72.0391 39.9247 73.0781 39.9247 74.875V74.8906C39.9247 76.7031 39.0809 77.75 37.7606 77.75ZM47.0328 79.1641C48.2828 79.1641 49.1188 78.5938 49.5484 77.7656H49.5875V79H51.2828V70.7812H49.5875V75.5781C49.5875 76.8594 48.8219 77.7109 47.6344 77.7109C46.4625 77.7109 45.8844 77.0234 45.8844 75.7812V70.7812H44.1969V76.1094C44.1969 78 45.2281 79.1641 47.0328 79.1641ZM57.1175 79.1641C57.4613 79.1641 57.7816 79.125 57.9769 79.0938V77.7891C57.8519 77.8047 57.7034 77.8203 57.5238 77.8203C56.8128 77.8203 56.4378 77.5703 56.4378 76.7344V72.125H57.9769V70.7812H56.4378V68.6406H54.7113V70.7812H53.5316V72.125H54.7113V76.8359C54.7113 78.4766 55.4925 79.1641 57.1175 79.1641ZM67.5994 79.1484C68.6853 79.1484 69.6384 78.5859 70.115 77.7031H70.1462V79H71.8416V73.3359C71.8416 71.6875 70.5681 70.625 68.5603 70.625C66.5369 70.625 65.3103 71.7109 65.1931 73.125L65.1853 73.2109H66.7791L66.7947 73.1406C66.9353 72.4844 67.5369 72.0234 68.5134 72.0234C69.5603 72.0234 70.1462 72.5703 70.1462 73.4766V74.0938L67.9119 74.2266C65.9666 74.3438 64.8572 75.2188 64.8572 76.6484V76.6641C64.8572 78.1406 65.9587 79.1484 67.5994 79.1484ZM66.5603 76.625V76.6094C66.5603 75.9141 67.1228 75.4688 68.1384 75.4062L70.1462 75.2812V75.9219C70.1462 76.9922 69.2478 77.7969 68.0603 77.7969C67.1541 77.7969 66.5603 77.3438 66.5603 76.625ZM74.7622 79H76.4497V74.2109C76.4497 72.9297 77.2153 72.0703 78.4028 72.0703C79.5747 72.0703 80.1528 72.7656 80.1528 74V79H81.8481V73.6797C81.8481 71.7891 80.8091 70.625 79.0044 70.625C77.7622 70.625 76.9184 71.1875 76.4887 72.0234H76.4497V70.7812H74.7622V79ZM87.8313 79.1641C89.0109 79.1641 89.9172 78.5703 90.4094 77.6094H90.4406V79H92.1359V67.7266H90.4406V72.1797H90.4094C89.9172 71.2109 88.9797 70.625 87.8156 70.625C85.7531 70.625 84.3938 72.2656 84.3938 74.8828V74.8906C84.3938 77.5078 85.7375 79.1641 87.8313 79.1641ZM88.2766 77.7109C86.9406 77.7109 86.1203 76.6406 86.1203 74.8906V74.8828C86.1203 73.1484 86.9484 72.0703 88.2766 72.0703C89.5422 72.0703 90.4484 73.1797 90.4484 74.8828V74.8906C90.4484 76.6016 89.55 77.7109 88.2766 77.7109ZM102.751 79.1641C103.93 79.1641 104.837 78.5703 105.329 77.6094H105.36V79H107.055V67.7266H105.36V72.1797H105.329C104.837 71.2109 103.899 70.625 102.735 70.625C100.673 70.625 99.3131 72.2656 99.3131 74.8828V74.8906C99.3131 77.5078 100.657 79.1641 102.751 79.1641ZM103.196 77.7109C101.86 77.7109 101.04 76.6406 101.04 74.8906V74.8828C101.04 73.1484 101.868 72.0703 103.196 72.0703C104.462 72.0703 105.368 73.1797 105.368 74.8828V74.8906C105.368 76.6016 104.469 77.7109 103.196 77.7109ZM110.984 69.5156C111.538 69.5156 111.968 69.0781 111.968 68.5469C111.968 68.0078 111.538 67.5703 110.984 67.5703C110.437 67.5703 109.999 68.0078 109.999 68.5469C109.999 69.0781 110.437 69.5156 110.984 69.5156ZM110.14 79H111.827V70.7812H110.14V79ZM117.928 79.1641C119.865 79.1641 121.272 78.1328 121.272 76.6328V76.625C121.272 75.4453 120.631 74.7812 118.951 74.3906L117.615 74.0859C116.732 73.875 116.397 73.5312 116.397 73.0234V73.0156C116.397 72.3594 116.967 71.9297 117.873 71.9297C118.826 71.9297 119.389 72.4297 119.49 73.1484L119.498 73.2031H121.084L121.076 73.1094C120.99 71.7109 119.818 70.625 117.873 70.625C115.982 70.625 114.701 71.6328 114.701 73.1016V73.1094C114.701 74.3047 115.475 75.0547 117.037 75.4141L118.381 75.7188C119.264 75.9297 119.561 76.2344 119.561 76.7656V76.7734C119.561 77.4375 118.951 77.8594 117.936 77.8594C116.897 77.8594 116.334 77.4141 116.178 76.6562L116.162 76.5781H114.49L114.498 76.6484C114.67 78.1484 115.873 79.1641 117.928 79.1641ZM127.395 79.1641C129.372 79.1641 130.747 77.8984 130.927 76.25L130.934 76.1953H129.309L129.302 76.2578C129.098 77.1484 128.434 77.75 127.395 77.75C126.091 77.75 125.223 76.6953 125.223 74.8984V74.8906C125.223 73.1328 126.075 72.0391 127.387 72.0391C128.489 72.0391 129.114 72.7188 129.294 73.5234L129.309 73.5859H130.919L130.911 73.5312C130.77 71.9844 129.489 70.625 127.372 70.625C125.028 70.625 123.497 72.2734 123.497 74.875V74.8828C123.497 77.5156 124.997 79.1641 127.395 79.1641ZM136.941 79.1641C139.292 79.1641 140.839 77.5391 140.839 74.8906V74.875C140.839 72.2422 139.277 70.625 136.933 70.625C134.597 70.625 133.042 72.25 133.042 74.875V74.8906C133.042 77.5312 134.582 79.1641 136.941 79.1641ZM136.949 77.75C135.628 77.75 134.769 76.7109 134.769 74.8906V74.875C134.769 73.0781 135.636 72.0391 136.933 72.0391C138.253 72.0391 139.113 73.0781 139.113 74.875V74.8906C139.113 76.7031 138.269 77.75 136.949 77.75ZM145.369 79H147.182L150.127 70.7812H148.369L146.307 77.3516H146.268L144.205 70.7812H142.408L145.369 79ZM155.571 79.1641C157.563 79.1641 158.829 77.9766 159.095 76.6719L159.11 76.5859H157.509L157.485 76.6484C157.274 77.2656 156.61 77.7812 155.61 77.7812C154.267 77.7812 153.415 76.875 153.384 75.3203H159.204V74.75C159.204 72.2812 157.79 70.625 155.485 70.625C153.181 70.625 151.696 72.3438 151.696 74.9141V74.9219C151.696 77.5156 153.157 79.1641 155.571 79.1641ZM155.493 72.0078C156.595 72.0078 157.392 72.7031 157.532 74.125H153.407C153.556 72.75 154.399 72.0078 155.493 72.0078ZM161.797 79H163.484V74.1016C163.484 72.875 164.156 72.1641 165.242 72.1641C165.57 72.1641 165.867 72.2031 166 72.2578V70.6875C165.867 70.6641 165.656 70.625 165.414 70.625C164.476 70.625 163.789 71.2266 163.523 72.1875H163.484V70.7812H161.797V79Z" fill="white"/>
</svg>
