<svg width="30" height="30" viewBox="0 0 30 30" fill="none" xmlns="http://www.w3.org/2000/svg">
<path d="M15 2C7.832 2 2 7.832 2 15C2 22.168 7.832 28 15 28C22.168 28 28 22.168 28 15C28 7.832 22.168 2 15 2ZM11.666 6H18.332C21.457 6 24 8.54202 24 11.666V18.332C24 21.457 21.458 24 18.334 24H11.668C8.54297 24 6 21.458 6 18.334V11.668C6 8.54297 8.54202 6 11.666 6ZM11.666 8C9.64502 8 8 9.64597 8 11.668V18.334C8 20.355 9.64597 22 11.668 22H18.334C20.355 22 22 20.354 22 18.332V11.666C22 9.64502 20.354 8 18.332 8H11.666ZM19.668 9.66602C20.036 9.66602 20.334 9.96403 20.334 10.332C20.334 10.7 20.036 11 19.668 11C19.3 11 19 10.7 19 10.332C19 9.96403 19.3 9.66602 19.668 9.66602ZM15 10C17.757 10 20 12.243 20 15C20 17.757 17.757 20 15 20C12.243 20 10 17.757 10 15C10 12.243 12.243 10 15 10ZM15 12C14.2044 12 13.4413 12.3161 12.8787 12.8787C12.3161 13.4413 12 14.2044 12 15C12 15.7956 12.3161 16.5587 12.8787 17.1213C13.4413 17.6839 14.2044 18 15 18C15.7956 18 16.5587 17.6839 17.1213 17.1213C17.6839 16.5587 18 15.7956 18 15C18 14.2044 17.6839 13.4413 17.1213 12.8787C16.5587 12.3161 15.7956 12 15 12Z" fill="black"/>
</svg>
