<svg width="50" height="50" viewBox="0 0 50 50" fill="none" xmlns="http://www.w3.org/2000/svg">
<g clip-path="url(#clip0_44_49)">
<path d="M43.9583 33.0208C43.4021 32.5168 42.7352 32.1505 42.0115 31.9515C41.2878 31.7525 40.5274 31.7263 39.7917 31.875L29.4792 33.6458C29.4663 32.3523 28.942 31.1165 28.0208 30.2083L20.625 22.9166H5.20833C4.6558 22.9166 4.12589 23.1361 3.73519 23.5268C3.34449 23.9175 3.125 24.4474 3.125 25C3.125 25.5525 3.34449 26.0824 3.73519 26.4731C4.12589 26.8638 4.6558 27.0833 5.20833 27.0833H18.9583L25.1042 33.2291C25.2507 33.3839 25.3323 33.5889 25.3323 33.802C25.3323 34.0152 25.2507 34.2202 25.1042 34.375C24.9323 34.5287 24.7098 34.6137 24.4792 34.6137C24.2486 34.6137 24.026 34.5287 23.8542 34.375L20.2083 30.7291C19.8073 30.3704 19.2881 30.1721 18.75 30.1721C18.2119 30.1721 17.6927 30.3704 17.2917 30.7291C16.9032 31.1361 16.6865 31.677 16.6865 32.2395C16.6865 32.8021 16.9032 33.343 17.2917 33.75L20.9375 37.2916C21.3919 37.7704 21.9423 38.1477 22.5526 38.399C23.1629 38.6503 23.8194 38.7699 24.4792 38.75C25.1169 38.7472 25.75 38.6416 26.3542 38.4375L40.5208 35.9375C40.6666 35.9109 40.8163 35.9158 40.96 35.9517C41.1037 35.9877 41.2381 36.0538 41.3542 36.1458C41.5418 36.3439 41.6526 36.6024 41.6667 36.875C41.6716 37.1187 41.5909 37.3564 41.4386 37.5467C41.2864 37.737 41.0722 37.8679 40.8333 37.9166L21.4583 41.4583L10.1042 32.1875H5.20833C4.6558 32.1875 4.12589 32.407 3.73519 32.7977C3.34449 33.1884 3.125 33.7183 3.125 34.2708C3.125 34.8233 3.34449 35.3532 3.73519 35.7439C4.12589 36.1346 4.6558 36.3541 5.20833 36.3541H8.64583L20.2083 45.8333L41.5625 41.9791C42.7672 41.7799 43.8606 41.1553 44.6442 40.2188C45.4278 39.2823 45.8497 38.0959 45.8333 36.875C45.8414 36.1311 45.6762 35.3955 45.3508 34.7265C45.0253 34.0576 44.5486 33.4736 43.9583 33.0208Z" fill="#00A0B1"/>
<path d="M35.7289 20.9375C34.1951 20.9678 32.6941 20.4919 31.458 19.5834C31.2266 19.4295 30.9666 19.3234 30.6936 19.2715C30.4205 19.2196 30.1398 19.2229 29.868 19.2811C29.5962 19.3393 29.3388 19.4514 29.1109 19.6106C28.8831 19.7699 28.6895 19.9731 28.5414 20.2084C28.3771 20.4037 28.2545 20.6306 28.181 20.875C28.1075 21.1195 28.0847 21.3763 28.1139 21.6299C28.1432 21.8835 28.2239 22.1284 28.3511 22.3496C28.4784 22.5709 28.6494 22.7639 28.8539 22.9167C30.1943 23.8574 31.7223 24.497 33.333 24.7917V27.0834C33.333 27.6359 33.5525 28.1658 33.9432 28.5565C34.3339 28.9472 34.8638 29.1667 35.4164 29.1667C35.9689 29.1667 36.4988 28.9472 36.8895 28.5565C37.2802 28.1658 37.4997 27.6359 37.4997 27.0834V24.7917C38.6424 24.6232 39.7204 24.1561 40.6247 23.4375C41.2777 22.9582 41.8072 22.3303 42.1694 21.6057C42.5317 20.8812 42.7163 20.0809 42.708 19.2709C42.708 15.4167 39.1664 14.1667 36.1455 13.5417C33.1247 12.9167 32.4997 12.1875 32.4997 11.6667C32.4997 11.1459 32.708 11.0417 33.0205 10.7292C33.5952 10.4203 34.2441 10.2761 34.8955 10.3125C36.1059 10.302 37.2956 10.6265 38.333 11.25C38.5439 11.4221 38.7897 11.5462 39.0534 11.6138C39.3171 11.6813 39.5923 11.6906 39.8599 11.641C40.1276 11.5914 40.3812 11.4842 40.6032 11.3268C40.8252 11.1693 41.0103 10.9654 41.1455 10.7292C41.3241 10.5162 41.4558 10.268 41.532 10.0007C41.6083 9.7334 41.6273 9.45305 41.588 9.1779C41.5487 8.90275 41.4519 8.63896 41.3039 8.40371C41.1559 8.16846 40.9599 7.96704 40.7289 7.81254C39.7384 7.20114 38.6437 6.77741 37.4997 6.56254V4.16671C37.4997 3.61417 37.2802 3.08427 36.8895 2.69357C36.4988 2.30287 35.9689 2.08337 35.4164 2.08337C34.8638 2.08337 34.3339 2.30287 33.9432 2.69357C33.5525 3.08427 33.333 3.61417 33.333 4.16671V6.45837C30.208 6.97921 28.1247 9.06254 28.1247 11.875C28.1247 14.6875 31.5622 16.9792 34.8955 17.6042C38.2289 18.2292 38.333 18.9584 38.333 19.4792C38.333 20 37.1872 20.9375 35.7289 20.9375Z" fill="#00A0B1"/>
</g>
<defs>
<clipPath id="clip0_44_49">
<rect width="50" height="50" fill="white"/>
</clipPath>
</defs>
</svg>
