<svg width="45" height="45" viewBox="0 0 45 45" fill="none" xmlns="http://www.w3.org/2000/svg">
<path d="M35 12.9592C34.0798 13.4621 33.0914 13.8005 32.054 13.9531C33.1135 13.1722 33.926 11.9357 34.3087 10.4615C33.3183 11.1844 32.2203 11.7097 31.0511 11.9937C30.1156 10.7667 28.7829 10 27.308 10C24.4754 10 22.1793 12.8267 22.1793 16.3112C22.1793 16.8058 22.2255 17.2886 22.312 17.7488C18.0497 17.4862 14.271 14.973 11.7403 11.1536C11.3 12.086 11.0471 13.1698 11.0471 14.3282C11.0471 16.5171 11.9518 18.4493 13.3278 19.5804C12.4874 19.5473 11.6961 19.2633 11.0048 18.7912C11.0048 18.8184 11.0048 18.8433 11.0048 18.8705C11.0048 21.9291 12.772 24.4801 15.119 25.0587C14.6892 25.203 14.2354 25.2799 13.7672 25.2799C13.4374 25.2799 13.1153 25.2397 12.8028 25.1675C13.4556 27.6748 15.3498 29.5004 17.5939 29.5513C15.8392 31.2445 13.6277 32.2538 11.224 32.2538C10.8105 32.2538 10.4019 32.2242 10 32.165C12.2701 33.9552 14.9652 35 17.8622 35C27.2965 35 32.4539 25.3829 32.4539 17.0425C32.4539 16.7691 32.4491 16.497 32.4395 16.226C33.4424 15.3351 34.3125 14.2241 35 12.9592Z" fill="black"/>
</svg>
