<svg width="50" height="50" viewBox="0 0 50 50" fill="none" xmlns="http://www.w3.org/2000/svg">
<path d="M40.2675 16.2C40.1075 15.5995 39.782 14.96 39.5415 14.4C36.662 7.48 30.3705 5 25.2905 5C18.49 5 11 9.56 10 18.9595V20.88C10 20.96 10.0275 21.68 10.067 22.04C10.6275 26.5195 14.162 31.28 16.802 35.7595C19.642 40.559 22.589 45.28 25.5095 49.999C27.3095 46.9195 29.1035 43.7995 30.863 40.7995C31.3425 39.919 31.8985 39.039 32.3785 38.199C32.6985 37.6395 33.3095 37.08 33.589 36.5595C36.4285 31.361 41 26.12 41 20.96V18.84C41 18.2805 40.3065 16.3205 40.2675 16.2ZM25.415 25.84C23.416 25.84 21.228 24.8405 20.148 22.08C19.987 21.6405 20 20.76 20 20.6795V19.4395C20 15.9205 22.988 14.32 25.5875 14.32C28.7875 14.32 31.263 16.8805 31.263 20.0805C31.263 23.2805 28.615 25.84 25.415 25.84Z" fill="#00A0B1"/>
</svg>
