<svg width="64" height="20" viewBox="0 0 64 20" fill="none" xmlns="http://www.w3.org/2000/svg">
<path d="M9.04894 2.92705C9.3483 2.00574 10.6517 2.00574 10.9511 2.92705L12.0206 6.21885C12.1545 6.63087 12.5385 6.90983 12.9717 6.90983H16.4329C17.4016 6.90983 17.8044 8.14945 17.0207 8.71885L14.2205 10.7533C13.87 11.0079 13.7234 11.4593 13.8572 11.8713L14.9268 15.1631C15.2261 16.0844 14.1717 16.8506 13.388 16.2812L10.5878 14.2467C10.2373 13.9921 9.7627 13.9921 9.41221 14.2467L6.61204 16.2812C5.82833 16.8506 4.77385 16.0844 5.0732 15.1631L6.14277 11.8713C6.27665 11.4593 6.12999 11.0079 5.7795 10.7533L2.97933 8.71885C2.19562 8.14945 2.59839 6.90983 3.56712 6.90983H7.02832C7.46154 6.90983 7.8455 6.63087 7.97937 6.21885L9.04894 2.92705Z" fill="#FFE071"/>
<path d="M31.0489 2.92705C31.3483 2.00574 32.6517 2.00574 32.9511 2.92705L34.0206 6.21885C34.1545 6.63087 34.5385 6.90983 34.9717 6.90983H38.4329C39.4016 6.90983 39.8044 8.14945 39.0207 8.71885L36.2205 10.7533C35.87 11.0079 35.7234 11.4593 35.8572 11.8713L36.9268 15.1631C37.2261 16.0844 36.1717 16.8506 35.388 16.2812L32.5878 14.2467C32.2373 13.9921 31.7627 13.9921 31.4122 14.2467L28.612 16.2812C27.8283 16.8506 26.7739 16.0844 27.0732 15.1631L28.1428 11.8713C28.2766 11.4593 28.13 11.0079 27.7795 10.7533L24.9793 8.71885C24.1956 8.14945 24.5984 6.90983 25.5671 6.90983H29.0283C29.4615 6.90983 29.8455 6.63087 29.9794 6.21885L31.0489 2.92705Z" fill="#FFE071"/>
<path d="M53.0489 2.92705C53.3483 2.00574 54.6517 2.00574 54.9511 2.92705L56.0206 6.21885C56.1545 6.63087 56.5385 6.90983 56.9717 6.90983H60.4329C61.4016 6.90983 61.8044 8.14945 61.0207 8.71885L58.2205 10.7533C57.87 11.0079 57.7234 11.4593 57.8572 11.8713L58.9268 15.1631C59.2261 16.0844 58.1717 16.8506 57.388 16.2812L54.5878 14.2467C54.2373 13.9921 53.7627 13.9921 53.4122 14.2467L50.612 16.2812C49.8283 16.8506 48.7739 16.0844 49.0732 15.1631L50.1428 11.8713C50.2766 11.4593 50.13 11.0079 49.7795 10.7533L46.9793 8.71885C46.1956 8.14945 46.5984 6.90983 47.5671 6.90983H51.0283C51.4615 6.90983 51.8455 6.63087 51.9794 6.21885L53.0489 2.92705Z" fill="#FFE071"/>
</svg>
