<svg width="51" height="45" viewBox="0 0 51 45" fill="none" xmlns="http://www.w3.org/2000/svg">
<g clip-path="url(#clip0_44_53)">
<path d="M36.6986 28.7683C36.236 30.3927 35.5752 31.9529 34.7314 33.4131H38.8361C39.0136 33.522 39.2013 33.6131 39.3964 33.6851C39.856 33.8568 40.3512 33.9085 40.836 33.8353C41.3208 33.7622 41.7793 33.5666 42.1689 33.2667L43.2978 32.4925C42.798 33.608 42.2081 34.68 41.5338 35.6979C40.0336 37.9427 38.1169 39.8737 35.8893 41.3846C34.7631 42.1476 33.568 42.8019 32.32 43.3387C31.0418 43.8923 29.7109 44.3129 28.3481 44.5941C25.5705 45.1465 22.7127 45.1465 19.9352 44.5941C18.5961 44.3215 17.2877 43.9135 16.0297 43.3764L15.9633 43.3513C14.7157 42.8136 13.5207 42.1593 12.394 41.3971C11.2817 40.6439 10.2448 39.7834 9.29776 38.8279C8.88272 38.4094 8.49258 37.991 8.1149 37.5307C8.7143 37.0112 9.34348 36.5278 9.99918 36.0828C10.3118 36.4483 10.6356 36.7998 10.9704 37.1373C11.8057 37.9836 12.7218 38.7447 13.7055 39.4095C14.714 40.0874 15.7824 40.6701 16.8971 41.1502L16.9511 41.1754C18.0606 41.6476 19.2148 42.0051 20.3959 42.2424C20.6906 42.301 20.9936 42.3554 21.2965 42.3972C18.7803 40.2949 16.5479 37.8696 14.6559 35.1832H11.3356C12.5807 34.3881 13.967 33.614 15.3407 32.8859C15.4445 33.0658 15.5524 33.2416 15.6645 33.4173H23.2431V29.1324L23.8241 28.8855C24.0991 29.4175 24.5353 29.847 25.0692 30.1116V33.4131H32.6105C34.4118 30.5635 35.383 27.6929 35.5158 24.8056L36.7111 28.7683H36.6986ZM21.3131 21.9476C21.5954 21.0396 22.3798 20.3115 23.517 19.575L19.6322 14.9972C19.3708 14.767 19.4372 14.5787 19.682 14.4155L20.9728 13.859C21.0768 13.8259 21.1866 13.8158 21.2948 13.8295C21.403 13.8433 21.5069 13.8804 21.5995 13.9385L27.2399 16.8049L33.8805 12.9342L24.6999 1.42689C24.4633 1.16327 24.4965 0.958228 24.8659 0.824325L26.9411 -0.0125732L40.737 8.97989L45.7174 6.54034C47.6142 5.70344 49.2494 5.56954 50.2829 6.19302C50.5244 6.29313 50.7271 6.46974 50.8604 6.69619C50.9937 6.92264 51.0503 7.18665 51.0216 7.44837C51.0424 8.70372 50.0006 10.0595 48.162 11.2144L42.9865 13.2481L42.5714 29.7894L40.7204 31.0447C40.4008 31.2749 40.214 31.1912 40.131 30.8439L35.8478 16.7379L28.9416 20.0855L28.1115 26.3623C28.1058 26.475 28.0757 26.585 28.0234 26.6848C27.971 26.7845 27.8977 26.8716 27.8085 26.9397L26.6339 27.7013C26.3642 27.8101 26.1733 27.7599 26.1359 27.4126L24.5753 21.5961C23.3302 22.1317 22.2843 22.3744 21.3795 22.0899C21.2965 22.0648 21.2882 22.0271 21.3131 21.9476ZM19.57 19.0478C14.0832 21.9769 6.74527 26.7347 4.04752 29.509C-4.77622 38.6688 2.10928 45.8076 12.4189 42.6818C9.18985 42.2006 6.66226 41.5436 5.25943 40.6146C-0.729584 36.6477 18.5407 28.0863 23.048 26.2116L22.6952 24.8935C21.9862 24.9583 21.2714 24.883 20.591 24.6717L20.3378 24.5587C20.0027 24.4337 19.6979 24.238 19.4438 23.9847C19.1898 23.7315 18.9922 23.4264 18.8644 23.09L18.8105 22.9435C18.5878 22.3723 18.5775 21.7392 18.7814 21.1609C18.9906 20.4776 19.3304 19.8422 19.7816 19.2905L19.5783 19.0478H19.57ZM3.3212 26.4083C3.22564 25.5595 3.17853 24.7058 3.18008 23.8516C3.17878 22.4268 3.31781 21.0055 3.59512 19.6085C3.86215 18.258 4.26545 16.9386 4.79874 15.6709L4.82364 15.6081C5.36003 14.3496 6.01024 13.1436 6.76602 12.0053C7.51067 10.8846 8.36284 9.84039 9.31021 8.88784C10.2573 7.93228 11.2942 7.0718 12.4064 6.31856C13.5331 5.55636 14.7281 4.90213 15.9757 4.3644C17.2542 3.81148 18.585 3.39088 19.9477 3.10906C20.7526 2.94762 21.566 2.83306 22.3839 2.76593C22.4769 2.91221 22.5795 3.05201 22.6911 3.18438L25.0651 6.16792V12.4949H29.3068L27.1527 13.7502L23.2431 11.7668V6.15536C21.0393 8.06024 19.0314 10.1841 17.2499 12.4949H17.8019C17.3598 12.8784 17.0454 13.3897 16.9013 13.9594C16.8694 14.0691 16.8458 14.181 16.8307 14.2942V14.3319H15.9716C14.9743 15.8626 14.1738 17.5147 13.5893 19.2486C12.838 19.7047 12.0827 20.1692 11.3356 20.6463C11.8219 18.4144 12.6628 16.2764 13.8258 14.3151H8.11075C7.69689 15.0338 7.32682 15.7772 7.00259 16.5413L6.97769 16.5957C6.50606 17.7189 6.15137 18.8884 5.91934 20.0855C5.73356 21.0266 5.61978 21.9807 5.57901 22.9394H7.88663C6.30516 24.0151 4.78122 25.1744 3.3212 26.4125V26.4083ZM35.4909 24.7763H31.0043L31.2492 22.9352H34.943L35.495 24.7763H35.4909ZM33.619 35.179C31.7253 37.8652 29.493 40.2916 26.9784 42.3972C27.2814 42.3512 27.5802 42.2968 27.8791 42.2382C29.0776 41.9944 30.2485 41.6285 31.3737 41.1461C32.4888 40.6669 33.5573 40.0841 34.5653 39.4053C35.549 38.7405 36.4652 37.9795 37.3004 37.1331C37.9182 36.5247 38.4911 35.8716 39.0146 35.179H33.619ZM25.0609 41.6357C27.4098 39.7372 29.5324 37.5705 31.3861 35.179H25.0609V41.6357ZM23.2431 35.179H16.9137C18.7699 37.5697 20.8938 39.7363 23.2431 41.6357V35.179ZM15.0087 12.4949C16.8786 9.85124 19.0457 7.43466 21.4667 5.29336C21.1098 5.34357 20.757 5.40216 20.4084 5.47329C19.2073 5.71246 18.0346 6.07853 16.9096 6.56544C15.7949 7.04555 14.7265 7.62827 13.7179 8.30619C12.7343 8.97097 11.8181 9.73205 10.9828 10.5784C10.3857 11.1758 9.83091 11.8148 9.32266 12.4907L15.0087 12.4949Z" fill="#00A0B1"/>
</g>
<defs>
<clipPath id="clip0_44_53">
<rect width="51" height="45" fill="white"/>
</clipPath>
</defs>
</svg>
